<?xml version="1.0" encoding="UTF-8"?><svg id="Layer_1" xmlns="http://www.w3.org/2000/svg" viewBox="0 0 65 65"><defs><style>.cls-1{fill:#101e2b;}</style></defs><path class="cls-1" d="M28.63,19.44c.41.09.81.16,1.2.31,1.21.45,2.26,1.47,2.73,2.68s.34,2.45.36,3.7l.76-2.53c.44-1.03,1.38-1.99,2.41-2.44,3.38-1.48,6.99,1.19,6.65,4.82,1.19.59,2.17,1.58,2.59,2.86,1.15,3.5-1.9,6.86-5.47,6.14l-5.1-1.33c2.37,2.67,5.47,4.29,9.05,4.62.49.04,1.31-.13,1.63.36.35.53-.05,1.2-.66,1.21-.08,0-.16-.04-.25-.04-4.2.04-8.09-2.04-10.89-5.05.34,1.46.82,2.9,1.17,4.37.09.38.22.78.26,1.17.38,3.63-3.24,6.34-6.61,4.88-1.11-.48-1.92-1.37-2.46-2.43-2.26.26-4.52-1.29-5.08-3.5-.62-2.47.71-4.9,3.1-5.73l2.13-.6c-1.25-.02-2.51.11-3.7-.36s-2.23-1.52-2.68-2.73c-.15-.39-.21-.79-.3-1.2.02-.31-.03-.66,0-.97.02-.2.11-.57.17-.78.49-1.77,2.03-3.14,3.86-3.41.26-1.76,1.59-3.31,3.3-3.82.24-.07.65-.18.89-.2h.97ZM31.38,30.25v-6.2c0-3.05-4.36-4.31-5.99-1.5-.4.7-.33,1.02-.45,1.74-.05.28-.32.57-.6.63-.48.1-.83.04-1.34.24-3.29,1.27-2.23,6.21,1.06,6.21h6.2l-3.49-3.52c-.55-.77.32-1.64,1.09-1.09l3.52,3.49ZM34.13,31.88l5.86,1.56c3.22.83,5.46-3.23,2.98-5.48-.54-.49-.96-.49-1.51-.79-.64-.35-.29-.92-.25-1.43.2-2.73-2.86-4.46-5.09-2.85-.74.53-1,1.1-1.27,1.95-.58,1.86-.97,3.8-1.49,5.67l4.37-2.49c.92-.15,1.37.82.58,1.4-.98.72-2.47,1.41-3.56,2.05-.21.12-.45.25-.63.42ZM30.51,33.37l-6.07,1.61c-3.51,1.25-2.46,6.42,1.2,6.25.47-.02.84-.29,1.28-.01.34.21.32.55.46.86,1.58,3.38,6.48,2.07,6.13-1.69l-1.63-6.25c-.16.16-.28.4-.4.6-.62,1.06-1.19,2.17-1.84,3.21-.17.28-.33.65-.68.75-.6.16-1.06-.31-.96-.91l2.5-4.42Z"/></svg>