<?xml version="1.0" encoding="UTF-8"?><svg id="Layer_1" xmlns="http://www.w3.org/2000/svg" viewBox="0 0 65 65"><defs><style>.cls-1{fill:none;stroke:#101e2b;stroke-miterlimit:10;stroke-width:1.5px;}</style></defs><path class="cls-1" d="M25.37,25.24c0-1.58-1.63-2.86-3.63-2.86s-3.63,1.28-3.63,2.86c0,.05,0,.1,0,.15,0,.07-.01.14,0,.22.11,1.17.46,2.22.97,3.04.67,1.06,1.61,1.73,2.65,1.73s1.98-.66,2.64-1.71c.52-.82.87-1.88.99-3.06,0-.08,0-.15,0-.22,0-.05,0-.1,0-.15Z"/><path class="cls-1" d="M46.89,25.24c0-1.58-1.63-2.86-3.63-2.86s-3.63,1.28-3.63,2.86c0,.05,0,.1,0,.15,0,.07-.01.14,0,.22.26,2.69,1.78,4.76,3.63,4.76s3.37-2.07,3.63-4.76c0-.08,0-.15,0-.22,0-.05,0-.1,0-.15Z"/><path class="cls-1" d="M45.79,28.82c.57-.84.98-1.95,1.1-3.2,0-.08,0-.15,0-.22,0-.05,0-.1,0-.15,0-1.58-1.63-2.86-3.63-2.86s-3.63,1.28-3.63,2.86c0,.05,0,.1,0,.15,0,.07-.01.14,0,.22.12,1.25.52,2.36,1.1,3.2-1.4.7-2.56,1.97-3.3,3.57-.42-.31-.85-.59-1.3-.82.82-1.19,1.38-2.78,1.55-4.57.01-.11,0-.21,0-.31,0-.07.01-.15.01-.22,0-2.25-2.32-4.07-5.18-4.07s-5.18,1.82-5.18,4.07c0,.07,0,.15.01.22-.01.1-.02.21,0,.31.17,1.79.74,3.38,1.55,4.57-.45.23-.88.51-1.3.82-.75-1.6-1.9-2.86-3.3-3.56.03-.05.07-.1.1-.15.52-.82.87-1.88.99-3.06,0-.08,0-.15,0-.22,0-.05,0-.1,0-.15,0-1.58-1.63-2.86-3.63-2.86s-3.63,1.28-3.63,2.86c0,.05,0,.1,0,.15,0,.07-.01.14,0,.22.11,1.17.46,2.22.97,3.04.04.06.08.11.12.17-2.18,1.1-3.79,3.56-4.14,6.53-.07.64.34,1.21.86,1.21h8.29c-.62,1.3-1.05,2.77-1.24,4.33-.11.91.48,1.72,1.22,1.72h16.6c.74,0,1.33-.81,1.22-1.72-.18-1.56-.61-3.02-1.24-4.33h8.29c.52,0,.93-.57.86-1.21-.35-2.98-1.96-5.44-4.14-6.54Z"/><path class="cls-1" d="M37.68,26.46c0-2.25-2.32-4.07-5.18-4.07s-5.18,1.82-5.18,4.07c0,.07,0,.15.01.22-.01.1-.02.21,0,.31.37,3.84,2.54,6.8,5.18,6.8s4.81-2.95,5.18-6.8c.01-.11,0-.21,0-.31,0-.07.01-.15.01-.22Z"/><path class="cls-1" d="M42.03,40.89c-.49-4.24-2.79-7.75-5.9-9.32.82-1.19,1.38-2.78,1.55-4.57.01-.11,0-.21,0-.31,0-.07.01-.15.01-.22,0-2.25-2.32-4.07-5.18-4.07s-5.18,1.82-5.18,4.07c0,.07,0,.15.01.22-.01.1-.02.21,0,.31.17,1.79.74,3.38,1.55,4.57-3.11,1.57-5.41,5.08-5.9,9.32-.11.91.48,1.72,1.22,1.72h16.6c.74,0,1.33-.81,1.22-1.72Z"/></svg>