<?xml version="1.0" encoding="UTF-8"?><svg id="Layer_1" xmlns="http://www.w3.org/2000/svg" viewBox="0 0 65 65"><defs><style>.cls-1{fill:#ebedee;}.cls-2{fill:#fff;}.cls-3{fill:#101e2b;}</style></defs><path class="cls-1" d="M0,0h64.89c.06,0,.11.05.11.11v64.77c0,.06-.05.11-.11.11H.11c-.06,0-.11-.05-.11-.11V0h0Z"/><path class="cls-2" d="M32.27,20.7c-.17.03-.43.17-.57.28-.6.46-1.28,1.43-1.87,1.98-1.56,1.44-3.18.59-5.01.79-.58.06-.96.59-1.02,1.14-.09.82.15,1.98.1,2.84-.09,1.72-1.28,2.31-2.38,3.37-.54.52-1.14,1-.79,1.85.21.51,1.78,1.72,2.25,2.24,1.4,1.55.56,3.18.76,4.98.06.57.59.96,1.14,1.02.83.09,1.98-.15,2.85-.1,1.73.09,2.31,1.27,3.38,2.37.59.61,1.23,1.3,2.11.63.64-.49,1.35-1.5,1.98-2.08,1.53-1.4,3.2-.56,4.99-.76.57-.06.96-.59,1.02-1.14.09-.83-.15-1.98-.1-2.84.09-1.73,1.27-2.31,2.38-3.37.54-.52,1.14-1,.79-1.85-.21-.51-1.77-1.72-2.25-2.24-1.43-1.56-.52-3.23-.77-5.03-.08-.57-.65-.93-1.18-.98-1.04-.1-2.29.24-3.35.03-1.5-.3-2.43-2.01-3.54-2.95-.27-.18-.59-.23-.91-.18Z"/><path class="cls-3" d="M32.98,19c.25.1.53.14.78.25,1.02.47,1.94,2.03,2.87,2.72.2.15.47.22.71.24,1.62.12,3.24-.59,4.65.63,1.59,1.39.76,3.25.92,5.03.03.3.13.46.32.68.92,1.11,2.43,1.86,2.8,3.34v1.21c-.31,1.3-1.48,2-2.38,2.87-.44.42-.8.66-.85,1.32-.11,1.45.48,2.92-.36,4.28-1.24,2.02-3.44,1.11-5.32,1.28-.28.03-.44.12-.66.29-1.05.83-2.01,2.62-3.42,2.81-2.16.29-2.78-1.04-4.05-2.36-.42-.43-.67-.79-1.32-.84-1.63-.12-3.23.59-4.65-.63-1.59-1.37-.76-3.26-.92-5.03-.03-.3-.13-.46-.32-.68-.92-1.11-2.43-1.86-2.8-3.34v-1.21c.31-1.3,1.48-2,2.38-2.87.43-.42.8-.66.85-1.32.11-1.46-.49-2.95.38-4.31,1.28-2,3.4-1.08,5.3-1.25.3-.03.46-.13.69-.32.94-.77,1.6-1.95,2.7-2.52l.81-.27h.9ZM32.27,20.7c-.17.03-.43.17-.57.28-.6.46-1.28,1.43-1.87,1.98-1.56,1.44-3.18.59-5.01.79-.58.06-.96.59-1.02,1.14-.09.82.15,1.98.1,2.84-.09,1.72-1.28,2.31-2.38,3.37-.54.52-1.14,1-.79,1.85.21.51,1.78,1.72,2.25,2.24,1.4,1.55.56,3.18.76,4.98.06.57.59.96,1.14,1.02.83.09,1.98-.15,2.85-.1,1.73.09,2.31,1.27,3.38,2.37.59.61,1.23,1.3,2.11.63.64-.49,1.35-1.5,1.98-2.08,1.53-1.4,3.2-.56,4.99-.76.57-.06.96-.59,1.02-1.14.09-.83-.15-1.98-.1-2.84.09-1.73,1.27-2.31,2.38-3.37.54-.52,1.14-1,.79-1.85-.21-.51-1.77-1.72-2.25-2.24-1.43-1.56-.52-3.23-.77-5.03-.08-.57-.65-.93-1.18-.98-1.04-.1-2.29.24-3.35.03-1.5-.3-2.43-2.01-3.54-2.95-.27-.18-.59-.23-.91-.18Z"/><path class="cls-3" d="M36.39,27.55c.86-.18,1.37.62.91,1.33l-8.42,8.4c-.85.56-1.75-.34-1.19-1.18l8.39-8.38c.08-.07.2-.15.3-.17Z"/><path class="cls-3" d="M37.6,37.63c-2.61,2.57-6.49-1.63-3.62-4.01,2.63-2.19,6.07,1.59,3.62,4.01ZM35.44,34.71c-1,.18-1,1.87.15,1.98,1.5.14,1.52-2.29-.15-1.98Z"/><path class="cls-3" d="M28.95,26.6c2.4-.27,3.96,2.46,2.46,4.35s-4.59.99-4.82-1.4c-.14-1.42.93-2.79,2.36-2.96ZM29.11,28.28c-1.27.21-1.03,2.28.45,1.98,1.13-.23.92-2.21-.45-1.98Z"/></svg>