<?xml version="1.0" encoding="UTF-8"?><svg id="Layer_1" xmlns="http://www.w3.org/2000/svg" viewBox="0 0 65 65"><defs><style>.cls-1{fill:#ebedee;}.cls-2{fill:#fff;stroke:#101e2b;stroke-miterlimit:10;stroke-width:1.5px;}</style></defs><path class="cls-1" d="M0,0h64.89c.06,0,.11.05.11.11v64.77c0,.06-.05.11-.11.11H.11c-.06,0-.11-.05-.11-.11V0h0Z"/><path class="cls-2" d="M21.74,28.2c-3.4,0-6.2,3.11-6.68,7.15-.07.64.34,1.21.86,1.21h11.64c.52,0,.93-.57.86-1.21-.47-4.04-3.28-7.15-6.68-7.15Z"/><path class="cls-2" d="M25.37,25.24c0-1.58-1.63-2.86-3.63-2.86s-3.63,1.28-3.63,2.86c0,.05,0,.1,0,.15,0,.07-.01.14,0,.22.26,2.69,1.78,4.76,3.63,4.76s3.37-2.07,3.63-4.76c0-.08,0-.15,0-.22,0-.05,0-.1,0-.15Z"/><path class="cls-2" d="M43.26,28.2c-3.4,0-6.2,3.11-6.68,7.15-.07.64.34,1.21.86,1.21h11.64c.52,0,.93-.57.86-1.21-.47-4.04-3.28-7.15-6.68-7.15Z"/><path class="cls-2" d="M46.89,25.24c0-1.58-1.63-2.86-3.63-2.86s-3.63,1.28-3.63,2.86c0,.05,0,.1,0,.15,0,.07-.01.14,0,.22.26,2.69,1.78,4.76,3.63,4.76s3.37-2.07,3.63-4.76c0-.08,0-.15,0-.22,0-.05,0-.1,0-.15Z"/><path class="cls-2" d="M32.5,30.69c-4.84,0-8.85,4.43-9.53,10.2-.11.91.48,1.72,1.22,1.72h16.6c.74,0,1.33-.81,1.22-1.72-.67-5.77-4.68-10.2-9.53-10.2Z"/><path class="cls-2" d="M37.68,26.46c0-2.25-2.32-4.07-5.18-4.07s-5.18,1.82-5.18,4.07c0,.07,0,.15.01.22-.01.1-.02.21,0,.31.37,3.84,2.54,6.8,5.18,6.8s4.81-2.95,5.18-6.8c.01-.11,0-.21,0-.31,0-.07.01-.15.01-.22Z"/></svg>