<?xml version="1.0" encoding="UTF-8"?><svg id="Layer_1" xmlns="http://www.w3.org/2000/svg" xmlns:xlink="http://www.w3.org/1999/xlink" viewBox="0 0 65 65"><defs><style>.cls-1{fill:url(#radial-gradient);}.cls-2{fill:#fff;stroke:#101e2b;stroke-miterlimit:10;stroke-width:2px;}</style><radialGradient id="radial-gradient" cx="32.5" cy="32.5" fx="32.5" fy="32.5" r="56.71" gradientUnits="userSpaceOnUse"><stop offset="0" stop-color="#fff"/><stop offset=".16" stop-color="#fbfbfb"/><stop offset="1" stop-color="#ebedee"/></radialGradient></defs><path class="cls-1" d="M0,0h64.89c.06,0,.11.05.11.11v64.77c0,.06-.05.11-.11.11H.11c-.06,0-.11-.05-.11-.11V0h0Z"/><path class="cls-2" d="M26.6,33.54v8.69c0,.2-.39.72-.58.85-1.01.68-3.29.53-3.42-1.09v-19.01c.04-.8.58-1.37,1.44-1.44l17.28.06c.87.22,1.31,1.1.94,1.87l-3.31,4.05,3.34,4.16c.43.57-.34,1.87-.99,1.87h-14.7Z"/></svg>